<svg version="1.1" xmlns="http://www.w3.org/2000/svg" xmlns:xlink="http://www.w3.org/1999/xlink" x="0px" y="0px" viewBox="0 0 500 500" style="enable-background:new 0 0 500 500;" xml:space="preserve">
                                                               <style type="text/css">
                                                                   .st0{fill:#F5F5F5;}
                                                                   .st1{fill:#E0E0E0;}
                                                                   .st2{fill:#B16668;}
                                                                   .st3{fill:#37474F;}
                                                                   .st4{fill:#263238;}
                                                                   .st5{fill:#27DEBF;}
                                                                   .st6{opacity:0.1;}
                                                                   .st7{fill:#9A4A4D;}
                                                                   .st8{opacity:5.000000e-02;}
                                                                   .st9{fill:#FFA8A7;}
                                                                   .st10{fill:#F28F8F;}
                                                                   .st11{fill:#F0F0F0;}
                                                                   .st12{fill:#E6E6E6;}
                                                                   .st13{opacity:0.5;}
                                                                   .st14{fill:#FFFFFF;}
                                                               </style>
                                                               <g id="Floor">
                                                                   <path id="Floor_1_" class="st0" d="M93.9,440c85.7,39,224.6,39,310.3,0c85.7-39,85.7-102.3,0-141.3c-85.7-39-224.6-39-310.3,0
                                                                       S8.2,401,93.9,440z"/>
                                                               </g>
                                                               <g id="Shadows">
                                                                   <ellipse id="Shadow_13_" class="st1" cx="397.3" cy="362.5" rx="51.1" ry="24.4"/>
                                                                   <ellipse id="Shadow_14_" class="st1" cx="97.8" cy="375.2" rx="51.1" ry="24.4"/>
                                                               </g>
                                                               <g id="Character_2">
                                                                   <g id="XMLID_1841_">
                                                                       <g id="XMLID_1503_">
                                                                           <g id="XMLID_1391_">
                                                                               
                                                                                   <rect id="XMLID_2238_" x="67.4" y="354" transform="matrix(-1 -1.224647e-16 1.224647e-16 -1 144.193 724.13)" class="st2" width="9.4" height="16"/>
                                                                               <polygon id="XMLID_1659_" class="st2" points="105.7,357.9 115.1,358.3 115.6,341.3 105.7,341 				"/>
                                                                               <path id="XMLID_2235_" class="st3" d="M70.2,240.3c0,8.9,0.5,60.8,0.5,60.8c-0.2,2.6-2.7,7.1-2.9,16.4
                                                                                   c-0.3,13.4-0.8,44.6-0.8,44.6s4.5,2.7,10.4,0.2c0,0,9.9-44.2,11.6-57.6c1.5-11.6,4-43.2,4-43.2l7.2,39.3c0,0-1.7,6.9-1.2,14.9
                                                                                   c0.4,6.2,6.1,37,6.1,37s4.4,3,10.8,0.8c0,0,0.6-48.4,0.7-54c0.1-6.4-2.7-61.8-2.7-61.8L70.2,240.3z"/>
                                                                               <path id="XMLID_1527_" class="st4" d="M76.8,365.5c0,0,0-1.3,0-1.3c0.5,0,0.8,0.5,1,1.7c0.1,0.9,0.3,1.5,0.5,2.6
                                                                                   c0.4,1.7,0.8,2.8,1.6,4.8c1.3,3.3,2.4,4.5,5.5,8.3c0.7,0.9,2.3,2.3,2.9,3.4c0.6,1,0.8,3.8-0.2,4.5c-3.5,2.4-8.9,2.4-12.7,1.3
                                                                                   c-2.9-0.9-5-3.2-5.5-6.2c-0.1-0.9-0.1-1.7-0.2-2.6c-0.2-2-1.2-3.8-2.3-5.4c-0.7-1-1.4-1.9-1.8-3c-0.8-1.9-0.2-4.1,0.3-6
                                                                                   c0.4-1.7,0.9-3.5,1.5-3.3c0,0.2,0,1,0,1c0.7,0.8,2.6,1.5,4.7,1.6C73.5,366.8,76.8,366.5,76.8,365.5z"/>
                                                                               <path id="XMLID_1526_" class="st4" d="M115.2,355.4c0.5,0,0.9,0.7,2,1.9c1.3,1.4,3.4,2.9,5.5,4c3.5,1.8,10.3,4.5,13.4,5.8
                                                                                   c1.9,0.9,1.8,3.2-0.2,4.5c-2,1.3-6.8,2.3-12.6,1c-3.1-0.7-7.2-3.6-9.8-3.5c-2.6,0.2-7.4,0.1-9.4-1.2c-1.9-1.3-1.1-4.1-0.6-6.6
                                                                                   c0.6-2.6,1.3-6.8,2.2-6.6v0.9c1.1,1.7,6.9,2.4,9.4,1.1L115.2,355.4z"/>
                                                                               <path id="XMLID_1512_" class="st4" d="M93,261.6c0,0,7.5-2.1,13-7.5c0,0-2.5,4.7-10,9.1l3.6,34.9L93,261.6z"/>
                                                                           </g>
                                                                           <g id="XMLID_2558_">
                                                                               <g id="XMLID_1668_">
                                                                                   <path id="XMLID_1670_" class="st2" d="M107.9,218.9c-6.1-20.4-4.9-37.6-6.1-42.9l15.7,21.9c0,0,1.1,12.6,3.2,21.5
                                                                                       c1.8,7.8,4.3,17.5,7.2,23.5c0.5,1.1,1.5,1.9,2.6,2.3c3,1.2,4.3,2.7,6.7,4.5c1.9,1.4,3.3,1.6,3.2,2.1c-0.1,0.7-1.1,2-3.1,1.8
                                                                                       c-1-0.1-2.4-0.7-4.1-1.4c0,0,1.7,3.1,5,6c4.5,3.9,5.2,6.7-2.4,8.1c-4.7,0.9-9-1.4-14.4-11.2c-1.5-2.8-4-7.3-5.4-11.1
                                                                                       C112.5,233.9,109.7,225.1,107.9,218.9z"/>
                                                                               </g>
                                                                               <path id="XMLID_863_" class="st5" d="M100.6,170.9c4.9,0.9,9.7,2,12.7,6.7c3,4.6,7.3,26.8,7.3,26.8s-6.3,4.4-13.5,4.2
                                                                                   L100.6,170.9z"/>
                                                                               <path id="XMLID_1_" class="st6" d="M100.6,170.9c4.9,0.9,9.7,2,12.7,6.7c3,4.6,7.3,26.8,7.3,26.8s-6.3,4.4-13.5,4.2L100.6,170.9
                                                                                   z"/>
                                                                               <path id="XMLID_1671_" class="st7" d="M67,179.1c-3.3,2.3-20.5,41.3-21.2,44c-0.9,3.7-0.5,7.8,1.3,9.2c1.9,1.4,5.8-0.6,7.9-2.6
                                                                                   c4-3.9,18-33.1,18-33.1L67,179.1z"/>
                                                                               <path id="XMLID_2559_" class="st5" d="M84.1,171c-7.9,1.9-18,5.1-21.6,12.5c-3.5,7.3-9,19.2-9,19.2c3.6,3.5,8,6.1,13.2,7.8l4-7
                                                                                   l-0.6,36.9c6.5,4.7,30.1,7.3,43.7-2.7c0,0-1.7-44.4-1.7-51.3c0-6.9-3.8-15.2-14.4-15.8L84.1,171z"/>
                                                                               <path id="XMLID_2557_" class="st6" d="M70.8,203.4c0,0,4-6.9,4.9-8.6l-5,17L70.8,203.4z"/>
                                                                           </g>
                                                                           <g id="XMLID_1530_">
                                                                               <g id="XMLID_1645_">
                                                                                   <circle id="XMLID_2252_" class="st4" cx="99.3" cy="140.2" r="12.9"/>
                                                                                   <path id="XMLID_1649_" class="st4" d="M77.1,149.3c0,0,2.1,9.8,2.9,11.4c0.8,1.6,2.6,2.1,2.6,2.1l-0.1-6.9L77.1,149.3z"/>
                                                                                   <path id="XMLID_2120_" class="st4" d="M79.7,135.3c0,0-2.2-0.4-4,1.4c-1.7,1.8-0.8,7.3,1.4,12.6l3.9,0.5L79.7,135.3z"/>
                                                                                   <path id="XMLID_1648_" class="st2" d="M82.2,149.8c-0.8,0.5-1.9-1-2.9-2.1c-1-1-4.1-2.4-5.7,0.9c-1.6,3.4,1.4,7.9,3.9,8.7
                                                                                       c4.3,1.4,4.9-1.4,4.9-1.4l0.3,16l0,0c5.4,6.9,20.2,6.3,14-0.9l0-4.7c0,0,3.9,0.6,5.8,0.3c3.2-0.5,5.2-3,6.1-6.4
                                                                                       c1.5-5.5,2.1-9.9,0.8-20.8c-1.4-11.9-15.2-12-22.7-7.3C79.3,136.8,82.2,149.8,82.2,149.8z"/>
                                                                                   <path id="XMLID_1647_" class="st4" d="M82.2,151.1c-0.4,0-1.9-2.5-2.9-3.4c-1.4-1.2,0.4-12.4,0.4-12.4s-1.7-3.2,0.9-6
                                                                                       c1.9-2,4.5-4.6,12.9-3.6c6,0.7,12.6,2.6,17.9,0c0.8,3.3,0.2,7-3.1,9.6c0,0-1.9,1.2-7,1.8c-5,0.6-12.9-0.1-14-0.3
                                                                                       c-1.5-0.2-1.8,1.2-2.6,5.1C84.1,145.3,83.5,151.1,82.2,151.1z"/>
                                                                                   <path id="XMLID_2115_" class="st4" d="M79.7,136.2l-4.8-2.6c0.7-1.4,2.3-1.9,3.6-1.2C79.8,133.1,80.4,134.8,79.7,136.2z"/>
                                                                                   <path id="XMLID_1646_" class="st7" d="M96.7,166.3c0,0-7.1-1.4-9.5-2.7c-1.7-0.9-3-2.4-3.4-3.4c0,0,0.5,2.1,1.9,4
                                                                                       c1.8,2.3,11,4,11,4L96.7,166.3z"/>
                                                                               </g>
                                                                               <g id="XMLID_1531_">
                                                                                   <path id="XMLID_1644_" class="st4" d="M95,148c0,0.8-0.6,1.5-1.4,1.5c-0.8,0-1.4-0.7-1.4-1.5c0-0.8,0.6-1.5,1.4-1.5
                                                                                       C94.4,146.5,95,147.2,95,148z"/>
                                                                                   <path id="XMLID_1643_" class="st4" d="M93.5,142.7l-3,1.7c-0.4-0.9-0.1-1.9,0.7-2.4C92,141.5,93.1,141.8,93.5,142.7z"/>
                                                                                   <path id="XMLID_2110_" class="st7" d="M96.1,157.8l3.2,1.2c-0.3,0.9-1.3,1.4-2.2,1.1C96.2,159.7,95.8,158.7,96.1,157.8z"/>
                                                                                   <path id="XMLID_2109_" class="st4" d="M107.6,143.8l-2.8-2.1c0.6-0.8,1.6-1,2.4-0.4C108,141.9,108.2,143.1,107.6,143.8z"/>
                                                                                   <path id="XMLID_1642_" class="st4" d="M106.8,147.6c0,0.8-0.6,1.5-1.4,1.5c-0.8,0-1.4-0.7-1.4-1.5c0-0.8,0.6-1.5,1.4-1.5
                                                                                       C106.2,146.1,106.8,146.8,106.8,147.6z"/>
                                                                                   <polygon id="XMLID_1641_" class="st7" points="99.6,146.3 100,154.8 104.5,153.3 					"/>
                                                                               </g>
                                                                           </g>
                                                                       </g>
                                                                       <g id="XMLID_1804_">
                                                                           <g id="XMLID_1674_">
                                                                               <path class="st3" d="M61.9,246.9c-0.3,0-0.5-0.2-0.5-0.5V89.1c0-0.3,0.2-0.5,0.5-0.5c0.3,0,0.5,0.2,0.5,0.5v157.3
                                                                                   C62.4,246.6,62.2,246.9,61.9,246.9z"/>
                                                                           </g>
                                                                           <g id="XMLID_1801_">
                                                                               <g id="XMLID_1791_">
                                                                                   <path id="XMLID_1803_" class="st5" d="M65.7,102.8L65.7,102.8c0-1.6-3.3-6-4-6c-0.6,0-3.6,4.3-3.6,6l0,0c0,0.6,0.4,1.1,1.1,1.6
                                                                                       c1.5,0.9,3.9,0.9,5.4,0C65.3,103.9,65.7,103.3,65.7,102.8L65.7,102.8L65.7,102.8z"/>
                                                                                   <path id="XMLID_1790_" class="st6" d="M65.7,102.8L65.7,102.8c0-1.6-3.3-6-4-6c-0.6,0-3.6,4.3-3.6,6l0,0c0,0.6,0.4,1.1,1.1,1.6
                                                                                       c1.5,0.9,3.9,0.9,5.4,0C65.3,103.9,65.7,103.3,65.7,102.8L65.7,102.8L65.7,102.8z"/>
                                                                               </g>
                                                                               <path id="XMLID_1673_" class="st5" d="M84,67.9c0,12.3-9.7,27.8-22.3,30.8C49,95.1,39.4,80.2,39.4,67.9
                                                                                   c0-12.3,7.9-23.8,22.3-23.8C76.1,44.1,84,55.6,84,67.9z"/>
                                                                               <path id="XMLID_2083_" class="st8" d="M40.3,61.1c-0.5,2.2-0.8,4.4-0.8,6.7c0,12.3,9.6,27.2,22.3,30.8
                                                                                   c10.5-2.4,18.9-13.6,21.5-24.4l0,0c0,0-3.3,11.8-17.9,12.8C50.7,88,38.9,71.3,40.3,61.1z"/>
                                                                           </g>
                                                                       </g>
                                                                       <path id="XMLID_1672_" class="st2" d="M47.7,232.5c-2.7-0.8-5.4-8.7-5.2-13.8c0.2-5.1,7.1-27.2,8-31.4c1.1-4.7,1-8.2,1.9-10.7
                                                                           c1.4-3.6,6-5.6,6-5.6s6-2.9,8.2-3.3c2.2-0.4,3,1,2.8,2.1c-0.2,1.2-1,4-1.2,5.6s-0.6,3.9-1.7,5.7c-1.1,1.8-5.7,6.1-5.9,8.5
                                                                           c-0.2,2.4-1.5,15.5-2.3,25c-0.6,7.8-1.4,11-3.1,13.1C53.4,229.8,49.7,233.1,47.7,232.5z"/>
                                                                   </g>
                                                               </g>
                                                               <g id="Character_1">
                                                                   <g id="XMLID_1840_">
                                                                       <g id="XMLID_2342_">
                                                                           <g id="XMLID_1392_">
                                                                               <rect id="XMLID_1793_" x="413.6" y="345" class="st9" width="9.5" height="16.3"/>
                                                                               <polygon id="XMLID_1792_" class="st9" points="390.1,344.2 380.7,344.5 380.2,327.3 390.1,327 				"/>
                                                                               <path id="XMLID_1396_" class="st5" d="M420,224c0,9.1,1.4,63.5,1.4,63.5c0.2,2.6,2.7,7.2,2.9,16.6c0.3,13.6-0.9,48.9-0.9,48.9
                                                                                   s-4.6,2.7-10.6,0.2c0,0-8.4-48.6-10.1-62.1c-1.5-11.8-4-43.8-4-43.8l-5.1,38.4c0,0,1.8,7,1.2,15.1c-0.4,6.2-4.1,37.8-4.1,37.8
                                                                                   s-4.5,3-11,0.8c0,0-4.8-48-4.9-53.7c-0.1-6.5,3.2-73.2,3.2-73.2L420,224z"/>
                                                                               <g id="XMLID_1389_">
                                                                                   <g id="XMLID_1837_">
                                                                                       <path id="XMLID_1839_" class="st9" d="M382.8,205.3c6.1-20.4,4.9-37.6,6.1-42.9l-15.7,21.9c0,0-1.1,12.6-3.2,21.5
                                                                                           c-1.8,7.8-4.3,17.5-7.2,23.5c-0.5,1.1-1.5,1.9-2.6,2.3c-3,1.2-4.3,2.7-6.7,4.5c-1.9,1.4-3.3,1.6-3.2,2.1
                                                                                           c0.1,0.7,1.1,2,3.1,1.8c1-0.1,2.4-0.7,4.1-1.4c0,0-1.7,3.1-5,6c-4.5,3.9-5.2,6.7,2.4,8.1c4.7,0.9,9-1.4,14.4-11.2
                                                                                           c1.5-2.8,4-7.3,5.4-11.1C378.2,220.4,380.9,211.5,382.8,205.3z"/>
                                                                                   </g>
                                                                                   <path id="XMLID_1836_" class="st1" d="M390.1,157.3c-4.9,0.9-9.7,2-12.7,6.7c-3,4.6-7.3,26.8-7.3,26.8s6.3,4.4,13.5,4.2
                                                                                       L390.1,157.3z"/>
                                                                                   <path id="XMLID_1835_" class="st10" d="M423.7,165.5c3.3,2.3,20.5,41.3,21.2,44c0.9,3.7,0.5,7.8-1.3,9.2
                                                                                       c-1.9,1.4-5.8-0.6-7.9-2.6c-4-3.9-18-33.1-18-33.1L423.7,165.5z"/>
                                                                                   <path id="XMLID_1399_" class="st11" d="M406.7,157.3c7.9,1.9,18,5.1,21.6,12.5c3.5,7.3,9,19.2,9,19.2c-3.6,3.5-8,6.1-13.2,7.8
                                                                                       l-4-7l0.6,36.9c-6.5,4.7-30.1,7.3-43.7-2.7c0,0,1.7-44.4,1.7-51.3c0-6.9,3.8-15.2,14.4-15.8L406.7,157.3z"/>
                                                                                   <path id="XMLID_1397_" class="st1" d="M420,189.7c0,0-4-6.9-4.9-8.6l5,17L420,189.7z"/>
                                                                               </g>
                                                                               <path id="XMLID_1395_" class="st4" d="M413.6,356.6v-1.4c-0.9,0.4-3,8.4-6.8,11.9c-3,2.7-7.1,5.9-8.1,8.9
                                                                                   c-1.1,3.2,5.7,4.9,8.5,4.4c3.3-0.6,8.9-2.9,10.3-5c1.4-2.1,2.1-5.3,3.2-6.8c1.1-1.6,3.8-3.3,4.4-5.1c0.3-1-0.1-3.2-0.5-5
                                                                                   c-0.4-1.7-0.9-3.5-1.5-3.4c0,0.2,0,1,0,1c-0.7,0.8-2.6,1.5-4.7,1.6C416.9,357.9,413.6,357.7,413.6,356.6z"/>
                                                                               <path id="XMLID_1394_" class="st4" d="M380.6,341.6c-0.5,0-0.9,0.7-2,1.9c-1.3,1.4-3.5,3-5.6,4c-3.6,1.8-10.5,4.5-13.6,5.9
                                                                                   c-2,0.9-1.9,3.2,0.2,4.6c2,1.3,6.9,2.3,12.8,1c3.2-0.7,7.3-3.7,10-3.5c2.6,0.2,7.5,0.1,9.5-1.2c1.9-1.3,1.2-4.2,0.6-6.6
                                                                                   c-0.6-2.7-1.3-6.9-2.2-6.7v0.9c-1.1,1.7-7,2.4-9.5,1.2L380.6,341.6z"/>
                                                                               <path id="XMLID_1393_" class="st6" d="M398.8,247.5c0,0-7.6-2.1-13.2-7.6c0,0,2.6,4.8,10.1,9.2l-1.6,33.5L398.8,247.5z"/>
                                                                           </g>
                                                                           <g id="XMLID_2522_">
                                                                               <g id="XMLID_2538_">
                                                                                   <g id="XMLID_2555_">
                                                                                       <path id="XMLID_2556_" class="st4" d="M409.7,122c0,0,2.2-0.4,3.9,1.4c1.7,1.7,1.3,4.9,0,12.2l-5.2,0.6L409.7,122z"/>
                                                                                   </g>
                                                                                   <g id="XMLID_2553_">
                                                                                       <path id="XMLID_2554_" class="st4" d="M379.4,119.9c0,0-2.1,0-3.2-0.7c-1.6-0.9-2,0.9-1.1,2.5c0.9,1.6,2.5,3.6,6,4
                                                                                           c0-0.2,1.5-4.1,1.5-4.1L379.4,119.9z"/>
                                                                                   </g>
                                                                                   <g id="XMLID_2549_">
                                                                                       <path id="XMLID_2552_" class="st9" d="M407.2,136.1c0.8,0.5,1.9-1,2.8-2c0.9-1,4.1-2.4,5.6,0.9c1.6,3.3-2,7.7-4.1,9.2
                                                                                           c-2.5,1.7-4.3,0.4-4.3,0.4l-0.5,12.7c0,0-2.8,6.7-10.2,7.8c-7.5,1-5.9-5.1-3.5-8.2l0-4.6c0,0-3.8,0.8-5.7,0.3
                                                                                           c-1.9-0.5-4.5-2.4-5.5-5.7c-1.3-4.2-2.8-11.3-1.3-20.9c1.9-11.5,14.9-11.7,22.2-7.1C410,123.5,407.2,136.1,407.2,136.1z"/>
                                                                                   </g>
                                                                                   <g id="XMLID_2546_">
                                                                                       <path id="XMLID_2548_" class="st4" d="M407.2,137.4c0.4,0,1.9-2.4,2.8-3.3c1.3-1.2-0.4-12.2-0.4-12.2s1.3-4.2-1.3-6.9
                                                                                           c-2.6-2.8-7.7-2.3-11.4-2.4c-3.9-0.1-8-0.4-13.3-2.7c-5.3-2.3-5.7-2.6-6.3-0.2c-0.7,2.3-0.9,7.6,2.3,11.2l2.6,1
                                                                                           c0,0,1.4,1.3,6.3,1.9c4.9,0.6,12.6-0.1,13.7-0.3c1.4-0.2,1.7,1.2,2.5,5C405.4,131.8,405.9,137.4,407.2,137.4z"/>
                                                                                   </g>
                                                                                   <g id="XMLID_2543_">
                                                                                       <path id="XMLID_2544_" class="st4" d="M409.7,122.8l4.7-2.5c-0.7-1.3-2.2-1.9-3.5-1.2C409.5,119.8,409,121.5,409.7,122.8z"/>
                                                                                   </g>
                                                                                   <g id="XMLID_2539_">
                                                                                       <path id="XMLID_2541_" class="st10" d="M393,152.3c0,0,6.9-1.4,9.3-2.7c1.6-0.9,2.9-2.3,3.3-3.3c0,0-0.5,2-1.9,3.9
                                                                                           c-1.8,2.3-10.8,3.9-10.8,3.9L393,152.3z"/>
                                                                                   </g>
                                                                               </g>
                                                                               <g id="XMLID_2525_">
                                                                                   <g id="XMLID_2536_">
                                                                                       <path id="XMLID_2537_" class="st4" d="M394.7,134.2c0,0.8,0.6,1.4,1.4,1.4c0.8,0,1.4-0.6,1.4-1.4c0-0.8-0.6-1.4-1.4-1.4
                                                                                           C395.3,132.7,394.7,133.4,394.7,134.2z"/>
                                                                                   </g>
                                                                                   <g id="XMLID_2534_">
                                                                                       <path id="XMLID_2535_" class="st4" d="M396.4,128.5l3,1.6c0.4-0.9,0.1-1.9-0.7-2.4C397.8,127.3,396.8,127.6,396.4,128.5z"/>
                                                                                   </g>
                                                                                   <g id="XMLID_2532_">
                                                                                       <path id="XMLID_2533_" class="st10" d="M394.8,143.8l-3.2,1.2c0.3,0.9,1.3,1.4,2.1,1C394.6,145.7,395.1,144.7,394.8,143.8z"/>
                                                                                   </g>
                                                                                   <g id="XMLID_2530_">
                                                                                       <path id="XMLID_2531_" class="st4" d="M381.7,130.4l2.7-2.1c-0.6-0.8-1.6-0.9-2.3-0.4C381.3,128.6,381.1,129.7,381.7,130.4z"
                                                                                           />
                                                                                   </g>
                                                                                   <g id="XMLID_2528_">
                                                                                       <path id="XMLID_2529_" class="st4" d="M383.2,133.8c0,0.8,0.6,1.4,1.4,1.4c0.8,0,1.4-0.6,1.4-1.4c0-0.8-0.6-1.4-1.4-1.4
                                                                                           C383.8,132.4,383.2,133,383.2,133.8z"/>
                                                                                   </g>
                                                                                   <g id="XMLID_2526_">
                                                                                       <polygon id="XMLID_2527_" class="st10" points="390.8,132.7 390.3,141 386,139.5 						"/>
                                                                                   </g>
                                                                               </g>
                                                                           </g>
                                                                       </g>
                                                                       <g id="XMLID_1828_">
                                                                           <g id="XMLID_1834_">
                                                                               <path class="st3" d="M428.8,233.3c-0.3,0-0.5-0.2-0.5-0.5V75.5c0-0.3,0.2-0.5,0.5-0.5c0.3,0,0.5,0.2,0.5,0.5v157.3
                                                                                   C429.3,233.1,429.1,233.3,428.8,233.3z"/>
                                                                           </g>
                                                                           <g id="XMLID_1829_">
                                                                               <g id="XMLID_1831_">
                                                                                   <path id="XMLID_1833_" class="st5" d="M425,89.2L425,89.2c0-1.6,3.3-6,4-6c0.6,0,3.6,4.3,3.6,6l0,0c0,0.6-0.4,1.1-1.1,1.6
                                                                                       c-1.5,0.9-3.9,0.9-5.4,0C425.4,90.3,425,89.8,425,89.2L425,89.2L425,89.2z"/>
                                                                                   <path id="XMLID_1832_" class="st6" d="M425,89.2L425,89.2c0-1.6,3.3-6,4-6c0.6,0,3.6,4.3,3.6,6l0,0c0,0.6-0.4,1.1-1.1,1.6
                                                                                       c-1.5,0.9-3.9,0.9-5.4,0C425.4,90.3,425,89.8,425,89.2L425,89.2L425,89.2z"/>
                                                                               </g>
                                                                               <path id="XMLID_1830_" class="st5" d="M406.7,54.3c0,12.3,9.7,27.8,22.3,30.8c12.7-3.6,22.3-18.5,22.3-30.8
                                                                                   c0-12.3-7.9-23.8-22.3-23.8C414.6,30.5,406.7,42,406.7,54.3z"/>
                                                                               <path id="XMLID_2090_" class="st8" d="M450.3,60.7c0,0-3.3,11.8-17.9,12.8c-14.1,0.9-25.5-14.5-25.1-24.8
                                                                                   c-0.4,1.8-0.6,3.7-0.6,5.6c0,12.3,9.7,27.8,22.3,30.8c10.5-2.9,18.9-13.7,21.5-24.3L450.3,60.7z"/>
                                                                           </g>
                                                                       </g>
                                                                       <path id="XMLID_1805_" class="st9" d="M443,218.9c2.7-0.8,5.4-8.7,5.2-13.8c-0.2-5.1-7.1-27.2-8-31.4c-1.1-4.7-1-8.2-1.9-10.7
                                                                           c-1.4-3.6-6-5.6-6-5.6s-6-2.9-8.2-3.3c-2.2-0.4-3,1-2.8,2.1c0.2,1.2,1,4,1.2,5.6s0.6,3.9,1.7,5.7c1.1,1.8,5.7,6.1,5.9,8.5
                                                                           c0.2,2.4,1.5,15.5,2.3,25c0.6,7.8,1.4,11,3.1,13.1C437.2,216.2,440.9,219.5,443,218.9z"/>
                                                                   </g>
                                                               </g>
                                                               <g id="Characters_with_Banner">
                                                                   <g id="XMLID_2027_">
                                                                       <ellipse id="Shadow_12_" class="st1" cx="184.8" cy="340.6" rx="51.1" ry="24.4"/>
                                                                       <ellipse id="Shadow_11_" class="st1" cx="293.4" cy="348" rx="51.1" ry="24.4"/>
                                                                       <g id="XMLID_2498_">
                                                                           <path id="XMLID_1802_" class="st9" d="M197.6,139.7c2.6-0.4,4.9,0,9.5,6.3c4.1,5.7,12.4,15.2,12.4,15.2s7.4-19.6,7.2-22.2
                                                                               c-0.2-2.6-1.9-4.2-3-9.1c-1.1-4.8-1.4-5.8-2.2-7.2c-0.8-1.4,2-1.8,3.1,0c1.1,1.8,1.3,4.2,2.1,3.8s1.3-5.8,0.7-9.6
                                                                               c-0.7-3.8,1.1-4.7,1.9-3.5c0.8,1.2,0.9,2.2,0.9,2.2s2.5-0.7,4.5,1.5c2,2.2,3.7,5.5,3.7,11.2c0,5.7-2.6,8.7-3,11.3
                                                                               c-0.4,2.6-5,26.3-8.3,34.3c-2.1,5-4.9,6.5-8.4,3.6c-4.7-3.9-17.6-19.8-17.6-19.8L197.6,139.7z"/>
                                                                           <path id="XMLID_830_" class="st5" d="M197.6,139.7c2.4-0.7,5-0.2,7.4,2.8c2.5,2.9,11.3,14.1,11.3,14.1s-0.3,5.7-7.7,11.1
                                                                               l-8.4-9.1L197.6,139.7z"/>
                                                                           <g id="XMLID_2926_">
                                                                               <g id="XMLID_1500_">
                                                                                   <path id="XMLID_1502_" class="st4" d="M210.2,324.9l-0.1-1.3c0.6,1.5,3.5,8.1,7.4,11.3c3.1,2.5,7.3,5.4,8.5,8.3
                                                                                       c1.2,3.1-5.3,4.5-8.1,4.2c-3.2-0.4-7.5-1.9-9.9-4.6c-1.7-1.8-2.8-4.1-4.1-5.6c-1.2-1.5-3.9-3-4.6-4.7c-0.4-1-0.1-3.1,0.2-4.9
                                                                                       c0.3-1.7,0.9-3.7,1.5-3.6c0,0.2-0.1,1.2-0.1,1.2c0.7,0.7,2.6,1.3,4.8,1.3C206.9,326.4,210.2,325.9,210.2,324.9z"/>
                                                                               </g>
                                                                               <g id="XMLID_1497_">
                                                                                   <path id="XMLID_1499_" class="st9" d="M220.3,337c-1-0.8-1.9-1.5-2.8-2.2c-2.7-2.2-4.9-6.1-6.2-8.8c0,0,0,0,0,0
                                                                                       c-1-2.2-1.3-4.2-1.3-6.9l0.1-3.2l-10,0.2l0.7,8.9v0l0,0l0,0.2l0,0c0.6,1.9,5.2,6.8,7.8,10c1.8,2.2,5,4.8,8.8,5.1
                                                                                       C221,340.8,222.7,339.5,220.3,337z"/>
                                                                               </g>
                                                                               <path id="XMLID_704_" class="st4" d="M154.3,326c-0.5-0.3-1.3,1.3-2.1,2.6c-0.8,1.2-1.3,3.5-1.2,5.1c0.1,1.6,0.3,2.6-0.3,6
                                                                                   c-0.6,3.3-1.5,7.1,1.8,10.2c2.9,2.6,9.3,3.8,11.3,2c1.1-1,1.3-2.1,1.3-2.8c-0.1-1-1.2-3.1-1.7-4.2c-1.9-3.9-2.1-4.6-2.1-4.6
                                                                                   L154.3,326z"/>
                                                                               <path id="XMLID_10_" class="st9" d="M163.3,320.4c-0.4-0.4-1.4,11.9-1.7,14.8c-0.3,3,0.2,4.5,0.7,7.6c0.2,0.7,0.2,1.6-0.2,2.2
                                                                                   c-0.4,0.7-1.3,1-2.1,1c-2.1,0-3.8-0.8-5.6-2.8c-0.9-1-0.9-3.7-0.9-4.6c0.1-1.7,0.2-3.2,0.1-4.8c-0.2-1.7-0.7-3.7-0.4-5
                                                                                   c0.2-1.2,0.5-1.7,1-2.8c0.8-1.9,1.3-6.9,1.3-6.9S163.3,320.4,163.3,320.4z"/>
                                                                               <path id="XMLID_2657_" class="st3" d="M167.5,190.2c-5.2,6.7-6.1,13.6-5,33c1.1,19.5-0.5,35.3-0.8,36.4
                                                                                   c-0.3,1.1-3.6,11.8-5.1,19.1c-1.8,8.5-2.1,43.3-2.1,43.3s3.7,2,9.4,0.6c0,0,13.8-54.5,15.2-58.9c1.5-4.4,12.5-49.7,12.5-49.7
                                                                                   l-1.4-26.1L167.5,190.2z"/>
                                                                               <path id="XMLID_2654_" class="st3" d="M207.2,212.6c-0.8-9-2.7-24.6-2.7-24.6l-23-1.4c-3.7,5.8-2.1,15.5-1.1,24.2l13.2,51.5
                                                                                   c-0.3,2.5-2.5,7.7,0,21c2.8,14.8,6.3,34.4,6.3,34.4s5.4,2.2,10.4,0.1c0,0,1.9-46.9,0.7-59.7
                                                                                   C209.6,244.3,207.8,218.8,207.2,212.6z"/>
                                                                               <path id="XMLID_2499_" class="st4" d="M187.6,234.5l3.8-18.9c0,0,5.6-1.9,9.4-4.8c0,0-3.1,4-6.6,6.1L187.6,234.5z"/>
                                                                           </g>
                                                                           <path id="XMLID_2668_" class="st9" d="M168.9,144.4c-2.6,1.5-6.8,2.9-8.6,7.9c-2.4,7-8.9,25.2-11.4,31.7h11.9l8.2-16.9
                                                                               C175.5,161.6,174.6,146.4,168.9,144.4z"/>
                                                                           <g id="XMLID_2651_">
                                                                               <path id="XMLID_2652_" class="st0" d="M203,173.4c0.6,5.3,2.7,24.7,2.7,24.7c-17.3,9.3-38.9,3.1-42.2-0.7c3-9.8,6.2-15.4,8.6-18
                                                                                   l-3.1-12.3c0,0,7.3-8.6-0.2-22.7l9.7-3.2l13.2-1.1l5.8-0.4c2.1,1.9,5.3,8.9,7.4,14.3C206.4,157.5,207.9,163.1,203,173.4z"/>
                                                                           </g>
                                                                           <g id="XMLID_2925_">
                                                                               <path id="XMLID_1479_" class="st5" d="M168.9,144.4c-5.7,1.1-8.3,3.9-10.5,10.1c-2.5,6.7-5.4,14-5.4,14s4.9,7.8,14.6,6l3.7-10.3
                                                                                   C171.3,164.3,176.2,155.2,168.9,144.4z"/>
                                                                           </g>
                                                                           <path id="XMLID_1400_" class="st12" d="M170.7,173.3c0.2,0.6,4.2,6,6.2,7.2c2,1.3-3.5,3-4.3,6.2c-1.6,6.3,8.2,14.5,20.4,15.6
                                                                               c-13.8,2.3-26.9-2-29.4-4.9c3-9.8,6.2-15.4,8.6-18L170.7,173.3z"/>
                                                                           <g id="XMLID_829_">
                                                                               <path id="XMLID_2656_" class="st4" d="M207.1,138.5h-18.5c-12.5,0-22.7-10.2-22.7-22.7l0,0c0-11.4,9.2-20.6,20.6-20.6l0,0
                                                                                   c11.4,0,20.6,9.2,20.6,20.6V138.5z"/>
                                                                               <g id="XMLID_2649_">
                                                                                   <path id="XMLID_2650_" class="st9" d="M199.8,104.2c2.2,1.3,4.9,6.8,4.6,18.2c-0.2,9.7-3.4,12.1-5,12.8
                                                                                       c-1.6,0.7-4.6,0.3-7.6-0.2v5.8c0,0-0.3,2.1-1.8,3.1c-2.4,1.5-5.3,0.9-6.9,0.4c-3.5-1.3-4.3-3-4.3-3l0.1-13.4
                                                                                       c0,0-1.7,1.7-4.7-0.9c-2.4-2.1-3.3-5.7-1.4-7.7c1.9-1.9,5.4-1.4,6.8,1.4c0,0,1.7,0.1,3.5-3.1c0,0-0.1-8.8,1.9-9.9
                                                                                       C191.2,104,195.6,104.2,199.8,104.2z"/>
                                                                               </g>
                                                                               <g id="XMLID_2647_">
                                                                                   <path id="XMLID_2648_" class="st4" d="M191.8,119.3c0,0.7-0.5,1.3-1.2,1.3c-0.7,0-1.3-0.5-1.3-1.2c0-0.7,0.5-1.3,1.2-1.3
                                                                                       C191.2,118.1,191.8,118.6,191.8,119.3z"/>
                                                                               </g>
                                                                               <g id="XMLID_2638_" class="st13">
                                                                                   <path id="XMLID_2639_" class="st10" d="M193.9,128.2l2.8,0.9c-0.2,0.8-1.1,1.3-1.8,1C194.1,129.9,193.6,129,193.9,128.2z"/>
                                                                               </g>
                                                                               <g id="XMLID_2636_">
                                                                                   <path id="XMLID_2637_" class="st4" d="M202.9,115.5l-2.5-1.7c0.5-0.7,1.4-0.9,2.1-0.4C203.1,113.9,203.3,114.8,202.9,115.5z"/>
                                                                               </g>
                                                                               <g id="XMLID_2742_">
                                                                                   <path id="XMLID_2743_" class="st4" d="M190.1,115l-2.8,1.1c-0.3-0.8,0-1.6,0.8-1.9C188.9,113.9,189.8,114.3,190.1,115z"/>
                                                                               </g>
                                                                               <g id="XMLID_2634_">
                                                                                   <path id="XMLID_2635_" class="st4" d="M202.2,119.1c0,0.7-0.5,1.3-1.2,1.3c-0.7,0-1.2-0.5-1.3-1.2c0-0.7,0.5-1.3,1.2-1.3
                                                                                       C201.6,117.8,202.2,118.4,202.2,119.1z"/>
                                                                               </g>
                                                                               <g id="XMLID_2563_" class="st13">
                                                                                   <polygon id="XMLID_2633_" class="st10" points="196.3,118.4 196.5,125.7 200.4,124.5 					"/>
                                                                               </g>
                                                                               <g id="XMLID_2521_" class="st13">
                                                                                   <path id="XMLID_2562_" class="st10" d="M191.8,135c-3.1-0.4-9.6-2.3-10.6-4.8c0,0,0.3,1.6,2.3,3.2c1.9,1.6,8.3,3.5,8.3,3.5V135
                                                                                       z"/>
                                                                               </g>
                                                                               <path id="XMLID_2520_" class="st4" d="M183.6,96.3l-0.5-5.4c1.5-0.2,2.9,0.9,3,2.4C186.2,94.7,185.1,96.1,183.6,96.3z"/>
                                                                               <path id="XMLID_2519_" class="st4" d="M183.3,96.8l-4.4-3.2c0.9-1.3,2.5-1.6,3.7-0.7C183.9,93.8,184.1,95.6,183.3,96.8z"/>
                                                                               <path id="XMLID_2497_" class="st4" d="M179.6,120.6v5.1l0,0c1.9,0,3.5-1.6,3.5-3.5v-4.7L179.6,120.6z"/>
                                                                               <path id="XMLID_2727_" class="st4" d="M193.5,96.4L193.5,96.4c9.6,0,17.3,7.7,17.3,17.3v2.2h-8.5c-3.9,0-7.3-2.9-7.8-6.8l0,0
                                                                                   l-0.3,6.8l0,0c-3.2,0-6-2.5-6.2-5.7l-0.1-1.1l0,0c-0.3,3.9-3.5,6.8-7.4,6.8h-0.8l-0.9-12.2L193.5,96.4z"/>
                                                                           </g>
                                                                       </g>
                                                                       <g id="XMLID_2005_">
                                                                           <g id="XMLID_828_">
                                                                               <path id="XMLID_2262_" class="st4" d="M311.1,338.3V337c-0.5,1.6-3,8.3-6.7,11.7c-3,2.7-7,5.8-8,8.8c-1.1,3.1,5.6,4.2,8.4,3.7
                                                                                   c3.2-0.6,7.3-2.4,9.6-5.2c1.6-1.9,2.6-4.3,3.7-5.8c1.1-1.5,3.7-3.2,4.4-5c0.3-1-0.1-3.1-0.5-4.9c-0.4-1.7-0.9-3.5-1.5-3.3
                                                                                   c0,0.2,0,1,0,1c-0.7,0.8-2.6,1.5-4.7,1.6C314.4,339.6,311.1,339.4,311.1,338.3z"/>
                                                                               <path id="XMLID_2260_" class="st2" d="M301.8,351.1c0.9-0.8,1.8-1.6,2.7-2.4c2.6-2.4,4.6-6.4,5.7-9.1c0.6-1.6,1-3.2,1-4.9v-5.3
                                                                                   h9.4v8.7v0v0v0.2l0,0c-0.5,1.9-4.7,7.1-7.2,10.5c-1.6,2.3-4.7,5.1-8.5,5.6C301.3,354.8,299.5,353.7,301.8,351.1z"/>
                                                                               <path id="XMLID_2632_" class="st4" d="M274.6,329.1v-1.3c-0.5,1.6-3,8.3-6.7,11.7c-3,2.7-7,5.8-8,8.8c-1.1,3.1,5.6,4.2,8.4,3.7
                                                                                   c3.2-0.6,7.3-2.4,9.6-5.2c1.6-1.9,2.6-4.3,3.7-5.8c1.1-1.5,3.7-3.2,4.4-5c0.3-1-0.1-3.1-0.5-4.9c-0.4-1.7-0.9-3.5-1.5-3.3
                                                                                   c0,0.2,0,1,0,1c-0.7,0.8-2.6,1.5-4.7,1.6C277.9,330.4,274.6,330.1,274.6,329.1z"/>
                                                                               <path id="XMLID_2265_" class="st2" d="M265.3,341.8c0.9-0.8,1.8-1.6,2.7-2.4c2.6-2.4,4.6-6.4,5.7-9.1c0.6-1.6,1-3.2,1-4.9v-5.3
                                                                                   h9.4v8.7v0v0v0.2l0,0c-0.4,1.9-4.7,7.1-7.2,10.5c-1.6,2.3-4.7,5.1-8.5,5.6C264.8,345.6,263,344.5,265.3,341.8z"/>
                                                                               <path id="XMLID_2258_" class="st3" d="M318.6,193c7.3,15.8-0.3,71.6-0.3,71.6c0.2,2.6,3.2,7.6,4.3,18.9c1.3,13.4-2,46.9-2,46.9
                                                                                   s-4.3,2.8-9.5,0.4c0,0-8.9-50.5-10.6-63.8c-1.5-11.6-4.3-37.1-4.3-37.1l-8,37c0,0,2,6.5,2.5,11.4c0.8,7.8-6.8,44.2-6.8,44.2
                                                                                   s-3.2,1.2-9.4,0.3c0,0-2.7-48.3-3.4-57.7c-1.2-15.8,3-65.2,5.9-74.5L318.6,193z"/>
                                                                               <path id="XMLID_2256_" class="st4" d="M296.3,229.9l-2.4-14.7c0,0-10-2.1-14.5-6.3c0,0,4.7,5.9,11.8,7.8l2.6,11.3l-4.6,34.3
                                                                                   L296.3,229.9z"/>
                                                                           </g>
                                                                           <g id="XMLID_2241_">
                                                                               <path id="XMLID_860_" class="st2" d="M291.4,137.5c-4.4-0.6-8.8,0.7-12,4.9c-3.1,4.2-15.3,39.4-15.3,39.4h10.9l14.9-29.5
                                                                                   L291.4,137.5z"/>
                                                                               <path id="XMLID_2248_" class="st0" d="M305.8,137.9L305.8,137.9c9.3,0.6,9.9,5.1,12.3,10c1.8,3.7,1.8,8.1,0.4,12l-6.5,18.7
                                                                                   c0,0,3,7.3,6.6,14.3c-16.3,9.1-36.6,4.3-41.4-2.3c-0.2-1.4,1-12.4,1.8-19.6c-2.9-7.2-3.6-11.7-2.4-16.5
                                                                                   c2.2-8.8,10.9-17.4,14.8-17.1L305.8,137.9z"/>
                                                                               <path id="XMLID_1956_" class="st12" d="M301.7,194.7c5.3-1.3,8.7-6.7,7.3-12c-0.1-0.2-0.1-0.4-0.2-0.5c-1-2.5-3.3-2.2-3.3-2.2
                                                                                   l0,0c2.1-1.4,3.6-3.6,4.1-6.1l2-9.9c0,0-3.7-11.6-3.3-15.6l9.3,0.5c0,0,0.5,0.3,1.2,0.8c1,3.3,0.9,6.8-0.3,10.1l-6.5,18.7
                                                                                   c0,0,3,7.3,6.6,14.3c-12,6.7-26.2,5.9-34.7,2.3C290.7,196.3,296.9,195.8,301.7,194.7z"/>
                                                                           </g>
                                                                           <g id="XMLID_2340_">
                                                                               <path id="XMLID_2341_" class="st2" d="M340,184.4c0,0-9.2-18.2-15.3-32.1c-4.4-10-5.4-12.3-12.4-13.4l-2.5-0.4
                                                                                   c-3.3,10.9-1,15.9,3.3,23.3l15.2,28.8C331.8,190,340.1,185.4,340,184.4z"/>
                                                                           </g>
                                                                           <g id="XMLID_827_">
                                                                               <g id="XMLID_2338_">
                                                                                   <path id="XMLID_2339_" class="st4" d="M295.4,130.2h6.5c9.7,0,17.5-7.8,17.5-17.5v-2.9c0-9.7-7.9-17.6-17.6-17.6h-6.3
                                                                                       c-9.7,0-17.6,7.9-17.6,17.6v2.9C277.9,122.4,285.7,130.2,295.4,130.2z"/>
                                                                               </g>
                                                                               <g id="XMLID_2163_">
                                                                                   <path id="XMLID_2164_" class="st2" d="M284.7,100.5c-2.2,1.3-4.9,6.8-4.6,18.4c0.2,9.8,3.4,12.2,5,12.9
                                                                                       c1.6,0.7,4.7,0.3,7.7-0.2v5.9c0,0-4.1,4.8-3.9,7.5c0.3,2.7,6,3.3,9.9,0.7c3.9-2.6,6.4-6.7,6.4-6.7v-14.2c0,0,2,2.7,5.3,0.5
                                                                                       c3.3-2.2,3.4-7.6,1.5-9.6c-1.9-2-6.1-1.3-6.8,1.4c0,0-4.8,0.2-11.1-3.3C287.6,110.3,285.1,104.3,284.7,100.5z"/>
                                                                               </g>
                                                                               <g id="XMLID_2154_">
                                                                                   <path id="XMLID_2162_" class="st4" d="M292.1,116.5c0,0.7,0.5,1.3,1.2,1.3c0.7,0,1.3-0.5,1.3-1.2c0-0.7-0.5-1.3-1.2-1.3
                                                                                       C292.8,115.2,292.2,115.8,292.1,116.5z"/>
                                                                               </g>
                                                                               <g id="XMLID_2152_">
                                                                                   <path id="XMLID_2153_" class="st7" d="M290.7,124.8l-2.9,0.9c0.2,0.8,1.1,1.3,1.9,1C290.5,126.5,290.9,125.6,290.7,124.8z"/>
                                                                               </g>
                                                                               <g id="XMLID_2147_">
                                                                                   <path id="XMLID_2151_" class="st4" d="M282,112.7l2.5-1.7c-0.5-0.7-1.4-0.9-2.1-0.4C281.7,111,281.6,112,282,112.7z"/>
                                                                               </g>
                                                                               <g id="XMLID_2144_">
                                                                                   <path id="XMLID_2145_" class="st4" d="M282.6,115.6c0,0.7,0.5,1.3,1.2,1.3c0.7,0,1.3-0.5,1.3-1.2c0-0.7-0.5-1.3-1.2-1.3
                                                                                       C283.2,114.3,282.6,114.9,282.6,115.6z"/>
                                                                               </g>
                                                                               <g id="XMLID_2142_">
                                                                                   <polygon id="XMLID_2143_" class="st7" points="288.6,114.9 288.4,122.3 284.5,121.1 					"/>
                                                                               </g>
                                                                               <g id="XMLID_2006_">
                                                                                   <path id="XMLID_2141_" class="st7" d="M292.8,131.7c3.2-0.4,9.7-2.3,10.7-4.8c0,0-0.3,1.6-2.3,3.3c-1.9,1.7-8.4,3.5-8.4,3.5
                                                                                       V131.7z"/>
                                                                               </g>
                                                                               <path id="XMLID_1937_" class="st4" d="M316.9,94.4c-4.1,1.7-3.1,5.2-1.4,9.2c1.7,4.1,3.5,7.2,7.6,5.5c4.1-1.7,6-6.4,4.3-10.4
                                                                                   C325.6,94.6,321,92.7,316.9,94.4z"/>
                                                                               <path id="XMLID_2631_" class="st4" d="M313.3,98l-1.4-6.8c1.9-0.5,3.7,0.7,4.1,2.5C316.4,95.6,315.2,97.5,313.3,98z"/>
                                                                           </g>
                                                                       </g>
                                                                       <g id="XMLID_858_">
                                                                           <rect id="XMLID_1798_" x="134.7" y="181.9" class="st5" width="212" height="48.5"/>
                                                                           <g id="XMLID_1980_">
                                                                               <path id="XMLID_2001_" class="st14" d="M163.5,217.3c-0.2-0.1-0.3-0.3-0.4-0.6L158,200c0-0.1,0-0.2,0-0.3c0-0.3,0.2-0.5,0.6-0.5
                                                                                   h2.9c0.3,0,0.5,0.1,0.6,0.2c0.1,0.1,0.2,0.3,0.3,0.5l3.3,11.7l3.8-10c0.1-0.3,0.2-0.4,0.3-0.6c0.1-0.1,0.3-0.2,0.6-0.2h1.6
                                                                                   c0.3,0,0.5,0.1,0.6,0.2c0.1,0.1,0.2,0.3,0.3,0.6l3.7,10l3.4-11.7c0.1-0.3,0.2-0.4,0.3-0.5c0.1-0.1,0.3-0.2,0.6-0.2h2.9
                                                                                   c0.4,0,0.6,0.2,0.6,0.5c0,0.1,0,0.2,0,0.3l-5.2,16.7c-0.1,0.3-0.2,0.5-0.4,0.6c-0.1,0.1-0.4,0.2-0.7,0.2H176
                                                                                   c-0.3,0-0.5-0.1-0.6-0.2c-0.1-0.1-0.3-0.3-0.4-0.6l-3.8-10.3l-3.8,10.3c-0.1,0.3-0.3,0.5-0.4,0.6c-0.1,0.1-0.3,0.2-0.6,0.2h-2.2
                                                                                   C163.9,217.5,163.7,217.5,163.5,217.3z"/>
                                                                               <path id="XMLID_2007_" class="st14" d="M190.3,217.1c-1.6-0.7-2.9-1.7-3.8-3.1c-1-1.4-1.4-3.2-1.4-5.3c0-3.3,0.9-5.8,2.6-7.5
                                                                                   c1.8-1.7,4.2-2.6,7.5-2.6c3.2,0,5.6,0.8,7.3,2.5c1.6,1.7,2.5,4,2.5,7.2c0,0.9-0.4,1.3-1.2,1.3h-14c0,1.7,0.6,3,1.8,3.9
                                                                                   c1.2,0.9,2.8,1.4,4.9,1.4c2,0,3.8-0.5,5.4-1.4c0.2-0.1,0.3-0.2,0.4-0.2c0.2,0,0.3,0.1,0.4,0.3l0.9,1.6c0.1,0.2,0.1,0.3,0.1,0.4
                                                                                   c0,0.2-0.1,0.3-0.3,0.5c-1,0.6-2.2,1.1-3.4,1.4c-1.2,0.3-2.6,0.5-4.2,0.5C193.7,218.1,191.9,217.8,190.3,217.1z M200.5,206.8
                                                                                   c0-1.6-0.4-2.8-1.3-3.7c-0.9-0.9-2.2-1.3-3.9-1.3c-1.8,0-3.1,0.5-4.1,1.4c-1,0.9-1.4,2.1-1.4,3.7H200.5z"/>
                                                                               <path id="XMLID_2011_" class="st14" d="M209,217.2c-0.2-0.2-0.3-0.6-0.3-1V193c0-0.5,0.1-0.8,0.3-1.1c0.2-0.2,0.6-0.3,1.1-0.3h2
                                                                                   c0.5,0,0.9,0.1,1.1,0.3c0.2,0.2,0.3,0.6,0.3,1.1v23.1c0,0.5-0.1,0.8-0.3,1c-0.2,0.2-0.6,0.3-1.1,0.3h-2
                                                                                   C209.5,217.5,209.2,217.4,209,217.2z"/>
                                                                               <path id="XMLID_2013_" class="st14" d="M220.1,215.6c-1.9-1.7-2.8-4-2.8-7.1c0-1.9,0.4-3.6,1.3-5.1c0.9-1.5,2.1-2.6,3.7-3.5
                                                                                   c1.6-0.8,3.5-1.2,5.7-1.2c1.6,0,3,0.2,4.1,0.5c1.1,0.3,2.2,0.8,3.1,1.5c0.2,0.2,0.3,0.3,0.3,0.5c0,0.2-0.1,0.3-0.2,0.5l-1,1.8
                                                                                   c-0.2,0.3-0.3,0.4-0.4,0.4c-0.1,0-0.3-0.1-0.5-0.2c-0.8-0.5-1.6-0.8-2.3-1.1c-0.8-0.2-1.7-0.4-2.8-0.4c-1.9,0-3.4,0.6-4.5,1.7
                                                                                   c-1.1,1.1-1.6,2.7-1.6,4.6c0,2.1,0.5,3.6,1.6,4.6c1.1,1,2.7,1.5,4.8,1.5c1.1,0,2-0.1,2.8-0.4c0.8-0.3,1.6-0.6,2.3-1.1
                                                                                   c0.2-0.1,0.4-0.2,0.5-0.2c0.2,0,0.3,0.1,0.5,0.4l1.1,1.9c0.1,0.1,0.2,0.3,0.2,0.4c0,0.2-0.1,0.4-0.4,0.5c-1,0.7-2.1,1.2-3.3,1.5
                                                                                   c-1.2,0.3-2.5,0.5-4.1,0.5C224.6,218.1,222,217.3,220.1,215.6z"/>
                                                                               <path id="XMLID_2015_" class="st14" d="M241.5,215.5c-1.8-1.7-2.7-4.1-2.7-7.1c0-3,0.9-5.4,2.7-7.1c1.8-1.7,4.3-2.6,7.6-2.6
                                                                                   c3.3,0,5.9,0.9,7.7,2.6c1.8,1.7,2.7,4.1,2.7,7.1c0,3-0.9,5.4-2.7,7.1c-1.8,1.7-4.4,2.6-7.7,2.6
                                                                                   C245.8,218.1,243.3,217.2,241.5,215.5z M253.3,212.9c0.9-1,1.4-2.6,1.4-4.6c0-2-0.5-3.5-1.4-4.5c-0.9-1-2.3-1.5-4.1-1.5
                                                                                   c-1.8,0-3.1,0.5-4.1,1.5c-1,1-1.4,2.5-1.4,4.5c0,2,0.5,3.5,1.4,4.6c1,1.1,2.3,1.6,4.1,1.6C250.9,214.5,252.3,214,253.3,212.9z"
                                                                                   />
                                                                               <path id="XMLID_2018_" class="st14" d="M263.6,217.2c-0.2-0.2-0.3-0.6-0.3-1v-15.9c0-0.4,0.1-0.6,0.2-0.8
                                                                                   c0.1-0.2,0.4-0.2,0.8-0.2h2c0.3,0,0.5,0.1,0.6,0.2c0.1,0.1,0.2,0.3,0.2,0.6l0.1,1.6c0.7-0.9,1.6-1.7,2.5-2.2
                                                                                   c1-0.5,2.1-0.8,3.4-0.8c1.1,0,2.1,0.2,2.9,0.7c0.8,0.5,1.4,1.2,1.8,2.2c1.4-2,3.4-2.9,6.1-2.9c1.8,0,3.2,0.5,4.3,1.6
                                                                                   c1.1,1.1,1.6,2.7,1.6,4.9v11c0,0.5-0.1,0.8-0.3,1c-0.2,0.2-0.6,0.3-1.1,0.3h-1.7c-0.5,0-0.9-0.1-1.1-0.3c-0.2-0.2-0.3-0.6-0.3-1
                                                                                   v-10.7c0-1.2-0.2-2-0.7-2.5c-0.5-0.5-1.2-0.8-2.2-0.8c-1,0-1.9,0.3-2.5,1c-0.6,0.7-1,1.6-1,2.8v10.2c0,0.5-0.1,0.8-0.3,1
                                                                                   c-0.2,0.2-0.6,0.3-1.1,0.3h-1.6c-0.5,0-0.9-0.1-1.1-0.3c-0.2-0.2-0.3-0.6-0.3-1v-10.9c0-1.1-0.2-1.8-0.7-2.3
                                                                                   c-0.4-0.5-1.2-0.7-2.1-0.7c-1.1,0-2,0.4-2.7,1.1c-0.7,0.7-1,1.7-1,2.8v10.1c0,0.5-0.1,0.8-0.3,1c-0.2,0.2-0.6,0.3-1.1,0.3h-1.7
                                                                                   C264.2,217.5,263.8,217.4,263.6,217.2z"/>
                                                                               <path id="XMLID_2021_" class="st14" d="M298.6,217.1c-1.6-0.7-2.9-1.7-3.8-3.1c-1-1.4-1.4-3.2-1.4-5.3c0-3.3,0.9-5.8,2.6-7.5
                                                                                   c1.8-1.7,4.2-2.6,7.5-2.6c3.2,0,5.6,0.8,7.3,2.5c1.6,1.7,2.5,4,2.5,7.2c0,0.9-0.4,1.3-1.2,1.3h-14c0,1.7,0.6,3,1.8,3.9
                                                                                   c1.2,0.9,2.8,1.4,4.9,1.4c2,0,3.8-0.5,5.4-1.4c0.2-0.1,0.3-0.2,0.4-0.2c0.2,0,0.3,0.1,0.4,0.3l0.9,1.6c0.1,0.2,0.1,0.3,0.1,0.4
                                                                                   c0,0.2-0.1,0.3-0.3,0.5c-1,0.6-2.2,1.1-3.4,1.4c-1.2,0.3-2.6,0.5-4.2,0.5C302,218.1,300.2,217.8,298.6,217.1z M308.8,206.8
                                                                                   c0-1.6-0.4-2.8-1.3-3.7c-0.9-0.9-2.2-1.3-3.9-1.3c-1.8,0-3.1,0.5-4.1,1.4c-1,0.9-1.4,2.1-1.4,3.7H308.8z"/>
                                                                               <path id="XMLID_2024_" class="st14" d="M316.2,216v-0.8c0-1.1,0.7-1.6,2.2-1.6h1c1.5,0,2.2,0.5,2.2,1.6v0.8c0,1-0.7,1.6-2.2,1.6
                                                                                   h-1C316.9,217.5,316.2,217,316.2,216z M317,210c-0.2-0.2-0.3-0.6-0.3-1l-0.2-15.9c0-0.5,0.1-0.8,0.3-1.1
                                                                                   c0.2-0.2,0.6-0.3,1.1-0.3h2.1c0.5,0,0.9,0.1,1.1,0.3c0.2,0.2,0.3,0.6,0.3,1.1l-0.3,15.9c0,0.5-0.1,0.8-0.3,1
                                                                                   c-0.2,0.2-0.5,0.3-1,0.3h-1.9C317.5,210.3,317.2,210.2,317,210z"/>
                                                                           </g>
                                                                       </g>
                                                                       <path id="XMLID_1800_" class="st9" d="M134.7,190.7c-0.6,1.7-2,2.5-3,4.3c-1,1.7-1.4,6.9-0.3,9c1.1,2.1,4.2,5.1,8.4,5.4
                                                                           c1.5,0,2.8-0.3,4.1-1.1c0.6-0.4,1.1-0.8,1.5-1.4c0.4-0.6,0.6-1.2,0.8-1.9c0-0.1,0-0.1,0.1-0.1c0,0,0.1,0,0.2-0.1
                                                                           c0.4-0.1,0.9-0.2,1.2-0.5c0.3-0.3,0.6-0.7,0.5-1.2c0-0.6-0.4-1.1-0.9-1.4c-0.5-0.3-1-0.4-1.6-0.6c-1.3-0.4-2.6-1.1-3.9-1.6
                                                                           c-4.7-1.8-7.1-4.3-7.1-4.3V190.7z"/>
                                                                       <path id="XMLID_1799_" class="st2" d="M346.7,192.2c0.6,1.8,2,2.6,3,4.3c1,1.8,1.4,7,0.3,9.1c-1.1,2.2-4.2,5.1-8.5,5.4
                                                                           c-3.2,0.2-5.9-2-6.5-4.2c-0.9-3.1,0.7-4.3,4.4-5.8c4.7-1.8,7.2-4.4,7.2-4.4V192.2z"/>
                                                                       <path id="XMLID_861_" class="st2" d="M254,177.7c5.6,0.9,7.2,4.2,7.2,4.2l-4.6,0c0,0-0.6,1.5,1,7.3c0.5,2-2.5,2.1-2.5,1.3
                                                                           c-0.5,1.2-4.5,3-7.4,1c-2.7-1.8-3.9-4.5-3.3-9.7C245.4,176.2,253,177.5,254,177.7z"/>
                                                                   </g>
                                                               </g>
                                                               </svg>